<?xml version="1.0" encoding="UTF-8"?><svg id="Layer_2" xmlns="http://www.w3.org/2000/svg" viewBox="0 0 501.881 132.362"><defs><style>.cls-1{fill:#6174ba;}.cls-2{isolation:isolate;}</style></defs><g id="Layer_1-2"><g><path d="M49.201,132.362c-2.154,0-4.308-.807-5.987-2.421C5.35,93.663,.865,58.959,.618,56.774c-.416-2.513-.618-4.991-.618-7.575C0,22.07,22.071,0,49.2,0s49.2,22.07,49.2,49.199c0,2.51-.214,5.127-.618,7.575-.247,2.185-4.732,36.889-42.598,73.17-1.677,1.612-3.83,2.418-5.983,2.418Zm0-128.362C24.276,4,4,24.276,4,49.199c0,2.38,.188,4.661,.573,6.972l.016,.115c.038,.346,4.236,35.167,41.395,70.77,1.835,1.766,4.598,1.764,6.43,.003,37.161-35.605,41.36-70.427,41.398-70.774l.016-.113c.375-2.249,.573-4.66,.573-6.972,0-24.923-20.277-45.199-45.2-45.199Z"/><path d="M62.5,65.699c-1.104,0-2-.896-2-2v-19.5c0-.474,.165-.908,.439-1.251l-11.816-9.468-11.434,9.505c.258,.336,.411,.757,.411,1.214v14.4c0,1.104-.896,2-2,2s-2-.896-2-2v-12.4h-1c-.842,0-1.595-.528-1.881-1.32-.287-.792-.045-1.679,.603-2.218l16-13.3c.73-.607,1.788-.616,2.529-.022l16.6,13.3c.663,.53,.918,1.422,.637,2.224-.282,.801-1.038,1.337-1.887,1.337h-1.2v17.5c0,1.104-.896,2-2,2Z"/><path class="cls-1" d="M62.062,65.684c-3.936,0-8.38-.64-13.157-2.408-16.86-6.29-23.784,.428-24.07,.717-.771,.779-2.034,.8-2.821,.034-.787-.764-.819-2.01-.064-2.805,.353-.37,8.837-8.973,28.349-1.696,15.01,5.559,26.619-1.545,26.734-1.617,.934-.587,2.168-.307,2.756,.626s.312,2.164-.619,2.755c-.385,.244-7.091,4.395-17.109,4.395Z"/><path class="cls-1" d="M60.494,77.039c-4.768,0-9.229-2.218-13.816-4.498-1.421-.707-2.892-1.438-4.4-2.118-9.655-4.396-13.924-.635-14.101-.473-.806,.737-2.065,.704-2.815-.086-.75-.793-.741-2.028,.039-2.792,.248-.244,6.222-5.896,18.529-.293,1.57,.709,3.075,1.456,4.529,2.18,9.182,4.564,15.248,7.578,25.027-3.765,.721-.837,1.984-.931,2.82-.209,.837,.721,.93,1.984,.209,2.82-5.965,6.92-11.153,9.232-16.021,9.233Z"/><path d="M46.8,47.7h0c-1.1,0-2-.9-2-2h0c0-1.1,.9-2,2-2h0c1.1,0,2,.9,2,2h0c0,1.1-.9,2-2,2Z"/><path d="M51.9,47.7h0c-1.1,0-2-.9-2-2h0c0-1.1,.9-2,2-2h0c1.1,0,2,.9,2,2h0c0,1.1-.9,2-2,2Z"/><path d="M46.8,52.5h0c-1.1,0-2-.9-2-2h0c0-1.1,.9-2,2-2h0c1.1,0,2,.9,2,2h0c0,1.2-.9,2-2,2Z"/><path d="M51.9,52.5h0c-1.1,0-2-.9-2-2h0c0-1.1,.9-2,2-2h0c1.1,0,2,.9,2,2h0c0,1.2-.9,2-2,2Z"/><g class="cls-2"><path d="M140.768,52.274s3.168,4.336,9.172,4.336c4.947,0,8.449-3.446,8.449-7.838,0-4.892-4.225-8.004-9.339-8.004-4.336,0-7.449,2.001-7.449,2.001l-2.279-1.057,1.556-16.231c.223-2.501,1.056-3.558,3.558-3.558h13.675c2.501,0,3.558,1.057,3.558,3.558v4.947h-5.059v-2.501c0-.834-.445-1.224-1.223-1.224h-8.227c-.778,0-1.112,.39-1.223,1.224l-.778,7.171c-.111,1.223-.278,2.057-.278,2.057h.111s2.112-1.168,5.059-1.168c8.449,0,14.008,5.726,14.008,12.896,0,6.894-5.559,12.952-14.119,12.952-8.116,0-12.174-5.503-12.174-5.503l3.002-4.059Z"/><path d="M194.023,32.597c0-3.613-2.668-6.226-6.893-6.226-3.502,0-6.059,1.778-6.059,3.725v1.723h-5.114v-3.335c0-5.114,6.837-7.227,11.396-7.227,7.171,0,12.34,4.559,12.34,11.284,0,13.508-19.9,13.73-19.9,22.791,0,.778,.445,1.057,1.39,1.057h13.953c.778,0,1.223-.445,1.223-1.224v-2.501h5.114v4.947c0,2.501-1.056,3.558-3.558,3.558h-20.123c-3.058,0-3.725-1.334-3.725-4.503,0-14.452,19.956-13.452,19.956-24.069Z"/><path d="M217.539,39.879v-.111s-4.836-2.557-4.836-8.005,4.336-10.506,12.229-10.506c7.504,0,12.285,4.503,12.285,10.617,0,5.781-4.725,9.339-4.725,9.339v.111c3.558,2.057,5.837,4.78,5.837,9.005,0,6.115-5.559,11.507-13.563,11.507-7.393,0-13.675-4.613-13.675-11.896,0-6.448,6.448-10.062,6.448-10.062Zm7.227,16.898c4.113,0,7.949-2.724,7.949-6.615,0-3.446-2.946-4.947-6.615-6.447-1.501-.612-3.613-1.445-4.058-1.445-1.39,0-5.336,3.224-5.336,7.393,0,4.392,3.78,7.115,8.06,7.115Zm2.891-17.788c1.334,0,4.169-3.279,4.169-6.781,0-3.613-2.891-5.893-6.893-5.893-4.28,0-6.782,2.446-6.782,5.559,0,3.446,2.946,4.78,6.448,6.17,.778,.334,2.391,.945,3.058,.945Z"/><path d="M248.115,41.491c0-11.284,3.391-20.234,13.897-20.234,10.45,0,13.841,8.95,13.841,20.234s-3.391,20.345-13.841,20.345c-10.507,0-13.897-9.005-13.897-20.345Zm22.124,0c0-8.505-1.834-15.176-8.227-15.176-6.448,0-8.283,6.671-8.283,15.176,0,8.561,1.835,15.286,8.283,15.286,6.393,0,8.227-6.726,8.227-15.286Z"/></g><g class="cls-2"><path d="M302.917,26.662h-3.499v-3.338h15.181c11.413,0,19.003,6.944,19.003,18.896,0,12.059-7.59,18.949-19.003,18.949h-8.397c-2.315,0-3.284-.969-3.284-3.284V26.662Zm4.953,31.169h6.352c9.313,0,15.45-5.49,15.45-15.611,0-10.066-6.19-15.558-15.45-15.558h-7.536v29.985c0,.807,.431,1.184,1.185,1.184Z"/><path d="M347.383,26.662h-3.499v-3.338h16.042c6.353,0,10.874,4.199,10.874,10.767,0,5.868-3.606,9.313-7.321,10.121v.107s.754,.431,1.292,1.507l5.438,10.767c.538,1.131,1.346,1.238,2.691,1.238h.754v3.338h-1.669c-3.068,0-3.983-.377-5.222-2.854l-5.438-10.82c-1.022-1.991-1.723-2.261-3.822-2.261h-6.353v15.935h-3.768V26.662Zm12.166,15.234c4.521,0,7.321-2.961,7.321-7.698,0-4.684-2.8-7.536-7.268-7.536h-8.452v15.234h8.398Z"/><path d="M385.926,26.662h-3.499v-3.338h21.641c2.315,0,3.284,.969,3.284,3.284v3.768h-3.553v-2.529c0-.808-.431-1.185-1.185-1.185h-12.92v13.781h14.212v3.338h-14.212v12.866c0,.807,.431,1.184,1.185,1.184h13.297c.753,0,1.184-.377,1.184-1.184v-2.53h3.499v3.768c0,2.315-.969,3.284-3.283,3.284h-16.365c-2.315,0-3.284-.969-3.284-3.284V26.662Z"/><path d="M416.826,57.831h.7c.969,0,1.562-.161,1.938-1.184l12.382-33.323h4.038l12.381,33.323c.377,1.022,.915,1.184,1.938,1.184h.646v3.338h-1.723c-2.691,0-3.499-.538-4.468-3.122l-3.284-8.937h-15.02l-3.337,8.937c-.97,2.584-1.723,3.122-4.415,3.122h-1.776v-3.338Zm23.525-12.005l-5.007-13.512c-.646-1.776-1.453-4.898-1.453-4.898h-.107s-.808,3.122-1.454,4.898l-4.952,13.512h12.974Z"/><path d="M458.708,57.831h1.991c.754,0,1.131-.377,1.185-1.184l2.638-33.323h3.822l10.013,22.018c.915,1.938,1.885,4.469,1.885,4.469h.107s.969-2.53,1.83-4.469l10.013-22.018h3.822l2.638,33.323c.054,.807,.431,1.184,1.185,1.184h2.046v3.338h-3.661c-2.314,0-3.122-.969-3.283-3.284l-1.776-22.986c-.162-2.046-.162-5.275-.162-5.275h-.107s-1.022,3.337-1.938,5.275l-8.989,19.219h-3.392l-8.937-19.219c-.861-1.884-1.992-5.384-1.992-5.384h-.107s0,3.338-.161,5.384l-1.776,22.986c-.162,2.315-.97,3.284-3.284,3.284h-3.606v-3.338Z"/></g><g class="cls-2"><path d="M137.799,86.33h-3.314v-4.385h15.859c6.578,0,11.27,4.437,11.27,11.27s-4.691,11.423-11.27,11.423h-7.445v13.31h-5.1v-31.617Zm11.729,13.922c4.232,0,6.833-2.703,6.833-7.037s-2.601-6.885-6.782-6.885h-6.68v13.922h6.629Z"/><path d="M175.641,86.33h-3.314v-4.385h15.706c6.324,0,10.76,3.978,10.76,10.556,0,6.018-3.927,8.975-6.477,9.536v.102s.918,.459,1.53,1.632l4.334,8.618c.51,1.071,1.326,1.173,2.55,1.173h.663v4.386h-2.499c-2.805,0-3.825-.357-4.998-2.703l-4.896-9.688c-.918-1.683-1.581-1.938-3.57-1.938h-4.691v14.329h-5.1v-31.617Zm11.729,12.902c3.875,0,6.17-2.499,6.17-6.527s-2.295-6.375-6.068-6.375h-6.731v12.902h6.629Z"/><path d="M229.598,81.333c10.403,0,18.511,8.006,18.511,18.358,0,10.606-8.108,18.868-18.511,18.868s-18.46-8.262-18.46-18.868c0-10.353,8.057-18.358,18.46-18.358Zm0,32.433c7.292,0,13.208-6.119,13.208-14.074,0-7.7-5.916-13.616-13.208-13.616s-13.157,5.916-13.157,13.616c0,7.955,5.865,14.074,13.157,14.074Z"/><path d="M262.75,86.33h-3.314v-4.385h15.859c6.578,0,11.27,4.437,11.27,11.27s-4.691,11.423-11.27,11.423h-7.445v13.31h-5.1v-31.617Zm11.729,13.922c4.232,0,6.833-2.703,6.833-7.037s-2.601-6.885-6.782-6.885h-6.681v13.922h6.63Z"/><path d="M300.591,86.33h-3.314v-4.385h21.163c2.295,0,3.264,.969,3.264,3.264v4.538h-4.641v-2.295c0-.765-.408-1.122-1.122-1.122h-10.25v11.271h12.596v4.386h-12.596v10.453c0,.714,.408,1.122,1.122,1.122h10.505c.714,0,1.122-.408,1.122-1.122v-2.294h4.691v4.538c0,2.295-.969,3.264-3.264,3.264h-16.013c-2.295,0-3.264-.969-3.264-3.264v-28.354Z"/><path d="M337.209,86.33h-3.314v-4.385h15.706c6.323,0,10.76,3.978,10.76,10.556,0,6.018-3.927,8.975-6.477,9.536v.102s.918,.459,1.53,1.632l4.334,8.618c.511,1.071,1.326,1.173,2.55,1.173h.663v4.386h-2.498c-2.805,0-3.825-.357-4.998-2.703l-4.896-9.688c-.918-1.683-1.581-1.938-3.569-1.938h-4.691v14.329h-5.1v-31.617Zm11.729,12.902c3.876,0,6.171-2.499,6.171-6.527s-2.295-6.375-6.068-6.375h-6.731v12.902h6.629Z"/><path d="M383.619,86.33h-7.242c-.714,0-1.121,.357-1.121,1.122v2.295h-4.539v-4.742c0-2.295,.765-3.06,3.06-3.06h24.784c2.295,0,3.06,.765,3.06,3.06v4.742h-4.539v-2.295c0-.765-.407-1.122-1.121-1.122h-7.242v31.617h-5.099v-31.617Z"/><path d="M412.178,113.562h3.519v-27.231h-3.519v-4.385h11.882v4.385h-3.519v27.231h3.519v4.386h-11.882v-4.386Z"/><path d="M439.106,86.33h-3.315v-4.385h21.163c2.295,0,3.264,.969,3.264,3.264v4.538h-4.641v-2.295c0-.765-.408-1.122-1.122-1.122h-10.25v11.271h12.596v4.386h-12.596v10.453c0,.714,.408,1.122,1.122,1.122h10.505c.714,0,1.122-.408,1.122-1.122v-2.294h4.691v4.538c0,2.295-.969,3.264-3.264,3.264h-16.012c-2.295,0-3.264-.969-3.264-3.264v-28.354Z"/><path d="M475.212,109.584s3.672,4.335,9.026,4.335c3.365,0,6.171-2.04,6.171-5.354,0-7.548-17.39-6.375-17.39-17.594,0-5.405,4.742-9.638,11.524-9.638,3.825,0,10.25,1.733,10.25,6.629v2.958h-4.691v-1.683c0-1.887-2.702-3.264-5.559-3.264-3.875,0-6.323,2.142-6.323,4.845,0,7.292,17.339,5.66,17.339,17.491,0,5.507-4.284,10.25-11.423,10.25-7.649,0-11.934-5.354-11.934-5.354l3.009-3.621Z"/></g><path d="M49.2,82.899c-17.81,0-32.3-14.489-32.3-32.3S31.39,18.3,49.2,18.3s32.3,14.489,32.3,32.3-14.49,32.3-32.3,32.3Zm0-60.6c-15.604,0-28.3,12.695-28.3,28.3s12.695,28.3,28.3,28.3,28.3-12.695,28.3-28.3-12.695-28.3-28.3-28.3Z"/></g></g></svg>